<?xml version="1.0" encoding="UTF-8"?>
<svg xmlns="http://www.w3.org/2000/svg" xmlns:xlink="http://www.w3.org/1999/xlink" width="128px" height="128px" viewBox="0 0 128 128" version="1.1">
<g id="surface1">
<path style=" stroke:none;fill-rule:nonzero;fill:rgb(0%,0%,0%);fill-opacity:1;" d="M 24.257812 43.785156 C 25.75 41.867188 26.8125 39.316406 26.492188 36.761719 C 24.257812 36.867188 21.597656 38.25 20.003906 40.058594 C 18.621094 41.65625 17.34375 44.316406 17.664062 46.761719 C 20.214844 47.082031 22.664062 45.699219 24.257812 43.785156 M 26.492188 47.402344 C 22.875 47.1875 19.789062 49.421875 18.089844 49.421875 C 16.386719 49.421875 13.726562 47.507812 10.851562 47.507812 C 7.128906 47.613281 3.722656 49.636719 1.808594 53.039062 C -2.023438 59.742188 0.746094 69.640625 4.574219 75.066406 C 6.382812 77.726562 8.617188 80.703125 11.492188 80.597656 C 14.257812 80.492188 15.320312 78.789062 18.621094 78.789062 C 21.917969 78.789062 22.875 80.597656 25.855469 80.492188 C 28.835938 80.386719 30.75 77.832031 32.558594 75.066406 C 34.6875 71.980469 35.539062 69 35.539062 68.894531 C 35.429688 68.789062 29.6875 66.660156 29.6875 60.0625 C 29.578125 54.53125 34.15625 51.871094 34.367188 51.765625 C 31.921875 47.933594 27.878906 47.507812 26.492188 47.402344 "/>
<path style=" stroke:none;fill-rule:nonzero;fill:rgb(0%,0%,0%);fill-opacity:1;" d="M 57.777344 39.847656 C 65.648438 39.847656 71.074219 45.273438 71.074219 53.039062 C 71.074219 60.914062 65.542969 66.339844 57.5625 66.339844 L 48.945312 66.339844 L 48.945312 80.066406 L 42.667969 80.066406 L 42.667969 39.847656 Z M 48.945312 61.128906 L 56.074219 61.128906 C 61.5 61.128906 64.585938 58.148438 64.585938 53.148438 C 64.585938 48.039062 61.5 45.167969 56.074219 45.167969 L 48.839844 45.167969 L 48.839844 61.128906 Z M 72.671875 71.875 C 72.671875 66.765625 76.609375 63.574219 83.632812 63.148438 L 91.71875 62.722656 L 91.71875 60.488281 C 91.71875 57.191406 89.484375 55.273438 85.867188 55.273438 C 82.355469 55.273438 80.226562 56.976562 79.695312 59.53125 L 73.949219 59.53125 C 74.269531 54.210938 78.84375 50.273438 86.078125 50.273438 C 93.207031 50.273438 97.78125 54 97.78125 59.957031 L 97.78125 80.171875 L 92.035156 80.171875 L 92.035156 75.386719 L 91.929688 75.386719 C 90.226562 78.683594 86.503906 80.703125 82.671875 80.703125 C 76.714844 80.703125 72.671875 77.085938 72.671875 71.875 Z M 91.71875 69.214844 L 91.71875 66.871094 L 84.480469 67.296875 C 80.863281 67.511719 78.84375 69.105469 78.84375 71.660156 C 78.84375 74.214844 80.972656 75.917969 84.164062 75.917969 C 88.417969 75.917969 91.71875 73.042969 91.71875 69.214844 Z M 103.101562 91.027344 L 103.101562 86.132812 C 103.527344 86.238281 104.59375 86.238281 105.015625 86.238281 C 107.785156 86.238281 109.273438 85.066406 110.230469 82.089844 C 110.230469 81.980469 110.761719 80.28125 110.761719 80.28125 L 100.121094 50.914062 L 106.613281 50.914062 L 114.0625 74.851562 L 114.167969 74.851562 L 121.617188 50.914062 L 128 50.914062 L 117.039062 81.875 C 114.488281 89.003906 111.613281 91.238281 105.550781 91.238281 C 105.125 91.132812 103.632812 91.132812 103.101562 91.027344 Z M 103.101562 91.027344 "/>
</g>
</svg>
