<?xml version="1.0" encoding="UTF-8"?>
<svg xmlns="http://www.w3.org/2000/svg" xmlns:xlink="http://www.w3.org/1999/xlink" width="128px" height="128px" viewBox="0 0 128 128" version="1.1">
<g id="surface1">
<path style=" stroke:none;fill-rule:nonzero;fill:rgb(37.254902%,38.823529%,40.784314%);fill-opacity:1;" d="M 60.472656 63.300781 L 60.472656 77.996094 L 55.730469 77.996094 L 55.730469 41.652344 L 68.054688 41.652344 C 71.058594 41.652344 73.902344 42.757812 76.117188 44.8125 C 78.328125 46.707031 79.433594 49.550781 79.433594 52.554688 C 79.433594 55.558594 78.328125 58.242188 76.117188 60.296875 C 73.902344 62.351562 71.21875 63.457031 68.054688 63.457031 Z M 60.472656 46.078125 L 60.472656 58.71875 L 68.371094 58.71875 C 70.109375 58.71875 71.847656 58.085938 72.953125 56.820312 C 75.480469 54.449219 75.480469 50.5 73.113281 48.128906 L 72.953125 47.972656 C 71.691406 46.707031 70.109375 45.917969 68.371094 46.074219 Z M 60.472656 46.078125 "/>
<path style=" stroke:none;fill-rule:nonzero;fill:rgb(37.254902%,38.823529%,40.784314%);fill-opacity:1;" d="M 90.335938 52.398438 C 93.8125 52.398438 96.5 53.347656 98.554688 55.242188 C 100.605469 57.136719 101.554688 59.664062 101.554688 62.824219 L 101.554688 77.996094 L 97.132812 77.996094 L 97.132812 74.519531 L 96.972656 74.519531 C 95.078125 77.363281 92.390625 78.785156 89.230469 78.785156 C 86.542969 78.785156 84.175781 77.996094 82.277344 76.414062 C 80.542969 74.835938 79.433594 72.625 79.433594 70.253906 C 79.433594 67.726562 80.382812 65.671875 82.277344 64.089844 C 84.175781 62.511719 86.859375 61.878906 90.023438 61.878906 C 92.867188 61.878906 95.078125 62.351562 96.816406 63.460938 L 96.816406 62.351562 C 96.816406 60.773438 96.183594 59.195312 94.917969 58.246094 C 93.65625 57.140625 92.074219 56.507812 90.339844 56.507812 C 87.652344 56.507812 85.597656 57.613281 84.175781 59.824219 L 80.066406 57.296875 C 82.59375 53.976562 85.914062 52.398438 90.335938 52.398438 Z M 84.332031 70.410156 C 84.332031 71.675781 84.964844 72.78125 85.914062 73.414062 C 87.019531 74.203125 88.28125 74.679688 89.546875 74.679688 C 91.445312 74.679688 93.339844 73.886719 94.761719 72.464844 C 96.339844 71.042969 97.132812 69.304688 97.132812 67.410156 C 95.710938 66.304688 93.65625 65.671875 90.96875 65.671875 C 89.070312 65.671875 87.492188 66.144531 86.226562 67.09375 C 84.964844 67.882812 84.332031 68.988281 84.332031 70.410156 Z M 84.332031 70.410156 "/>
<path style=" stroke:none;fill-rule:nonzero;fill:rgb(37.254902%,38.823529%,40.784314%);fill-opacity:1;" d="M 127.152344 53.1875 L 111.511719 89.058594 L 106.769531 89.058594 L 112.617188 76.574219 L 102.34375 53.347656 L 107.402344 53.347656 L 114.828125 71.203125 L 114.984375 71.203125 L 122.253906 53.347656 L 127.152344 53.347656 Z M 127.152344 53.1875 "/>
<path style=" stroke:none;fill-rule:nonzero;fill:rgb(25.882353%,52.156863%,95.686275%);fill-opacity:1;" d="M 41.667969 60.140625 C 41.667969 58.71875 41.511719 57.296875 41.351562 55.875 L 21.601562 55.875 L 21.601562 63.933594 L 32.820312 63.933594 C 32.34375 66.460938 30.921875 68.832031 28.710938 70.253906 L 28.710938 75.46875 L 35.503906 75.46875 C 39.457031 71.832031 41.667969 66.460938 41.667969 60.140625 Z M 41.667969 60.140625 "/>
<path style=" stroke:none;fill-rule:nonzero;fill:rgb(20.392157%,65.882353%,32.54902%);fill-opacity:1;" d="M 21.601562 80.523438 C 27.289062 80.523438 32.027344 78.628906 35.503906 75.46875 L 28.710938 70.253906 C 26.8125 71.519531 24.445312 72.308594 21.601562 72.308594 C 16.226562 72.308594 11.488281 68.671875 9.90625 63.617188 L 2.957031 63.617188 L 2.957031 68.988281 C 6.589844 76.101562 13.699219 80.523438 21.601562 80.523438 Z M 21.601562 80.523438 "/>
<path style=" stroke:none;fill-rule:nonzero;fill:rgb(98.431373%,73.72549%,1.568627%);fill-opacity:1;" d="M 9.90625 63.617188 C 8.960938 61.089844 8.960938 58.242188 9.90625 55.558594 L 9.90625 50.183594 L 2.957031 50.183594 C -0.046875 56.03125 -0.046875 62.984375 2.957031 68.988281 Z M 9.90625 63.617188 "/>
<path style=" stroke:none;fill-rule:nonzero;fill:rgb(91.764706%,26.27451%,20.784314%);fill-opacity:1;" d="M 21.601562 47.023438 C 24.601562 47.023438 27.445312 48.128906 29.660156 50.183594 L 35.664062 44.179688 C 31.871094 40.703125 26.816406 38.648438 21.757812 38.808594 C 13.859375 38.808594 6.589844 43.230469 3.113281 50.34375 L 10.066406 55.714844 C 11.488281 50.660156 16.230469 47.023438 21.601562 47.023438 Z M 21.601562 47.023438 "/>
</g>
</svg>
